<svg height="512" viewBox="0 0 512 512" width="512" xmlns="http://www.w3.org/2000/svg" xmlns:xlink="http://www.w3.org/1999/xlink"><linearGradient id="New_Gradient_Swatch_2" gradientUnits="userSpaceOnUse" x1="280" x2="280" y1="80.428" y2="412.755"><stop offset="0" stop-color="#fc5c7d"/><stop offset=".129" stop-color="#f35e85"/><stop offset=".343" stop-color="#d9659b"/><stop offset=".616" stop-color="#b070bf"/><stop offset=".934" stop-color="#777ff0"/><stop offset="1" stop-color="#6a82fb"/></linearGradient><linearGradient id="New_Gradient_Swatch_2-2" x1="216" x2="216" xlink:href="#New_Gradient_Swatch_2" y1="80.428" y2="412.755"/><linearGradient id="New_Gradient_Swatch_2-3" x1="256" x2="256" xlink:href="#New_Gradient_Swatch_2" y1="80.428" y2="412.755"/><linearGradient id="New_Gradient_Swatch_2-5" x1="296" x2="296" xlink:href="#New_Gradient_Swatch_2" y1="80.428" y2="412.755"/><linearGradient id="New_Gradient_Swatch_2-7" x1="288" x2="288" xlink:href="#New_Gradient_Swatch_2" y1="80.428" y2="412.755"/><g id="GD001"><path d="m248 216h8a16.019 16.019 0 0 0 16-16v-32h40a8 8 0 0 0 0-16h-40a16.019 16.019 0 0 0 -16 16v32h-8a8 8 0 0 0 0 16z" fill="url(#New_Gradient_Swatch_2)"/><path d="m200 168h32a8 8 0 0 0 0-16h-32a8 8 0 0 0 0 16z" fill="url(#New_Gradient_Swatch_2-2)"/><path d="m264 256h-16a8 8 0 0 0 0 16h16a8 8 0 0 0 0-16z" fill="url(#New_Gradient_Swatch_2-3)"/><circle cx="216" cy="184" fill="url(#New_Gradient_Swatch_2-2)" r="8"/><circle cx="296" cy="184" fill="url(#New_Gradient_Swatch_2-5)" r="8"/><path d="m382.924 306.484a87.506 87.506 0 0 0 -42.182-24q2.023-2.093 3.936-4.313a96.946 96.946 0 0 0 23.322-63.049v-7.122a32 32 0 0 0 0-64v-16a112 112 0 0 0 -224 0v16a32 32 0 0 0 0 64v7.122a96.946 96.946 0 0 0 23.322 63.047q1.908 2.226 3.935 4.313a88 88 0 0 0 -67.257 85.518v128h16v-128a71.59 71.59 0 0 1 20.516-50.329 72.532 72.532 0 0 1 11.484-9.537v187.866h16v-195.889a71.828 71.828 0 0 1 19.769-3.965c.3.2.6.395.9.587a8 8 0 0 0 -4.669 7.267v40a8 8 0 0 0 9.315 7.891l16.523-2.754 38.162 53.427v93.436h16v-93.436l38.162-53.427 16.523 2.754a8 8 0 0 0 9.315-7.891v-40a8 8 0 0 0 -4.669-7.267c.3-.192.6-.39.9-.587a71.828 71.828 0 0 1 19.769 3.965v195.889h16v-187.866a72.532 72.532 0 0 1 11.484 9.537 71.59 71.59 0 0 1 20.516 50.329v128h16v-128a87.5 87.5 0 0 0 -25.076-61.516zm1.076-130.484a16.019 16.019 0 0 1 -16 16v-32a16.019 16.019 0 0 1 16 16zm-256 0a16.019 16.019 0 0 1 16-16v32a16.019 16.019 0 0 1 -16-16zm32 39.122v-87.122a96 96 0 0 1 192 0v87.122a80.879 80.879 0 0 1 -80.878 80.878h-30.244a80.878 80.878 0 0 1 -80.878-80.878zm88 96.878h16v16h-16zm-48 0h32v17.223l-32 5.333zm56 74.236-28.591-40.027 13.253-2.209h30.676l13.253 2.209zm56-51.68-32-5.333v-17.223h32z" fill="url(#New_Gradient_Swatch_2-3)"/><g fill="url(#New_Gradient_Swatch_2-7)"><path d="m280 416h16v16h-16z"/><path d="m280 456h16v16h-16z"/></g></g></svg>