<svg height="512" viewBox="0 0 512 512" width="512" xmlns="http://www.w3.org/2000/svg" xmlns:xlink="http://www.w3.org/1999/xlink"><linearGradient id="New_Gradient_Swatch_2" gradientUnits="userSpaceOnUse" x1="346.958" x2="346.958" y1="85.585" y2="407.363"><stop offset="0" stop-color="#fc5c7d"/><stop offset=".129" stop-color="#f35e85"/><stop offset=".343" stop-color="#d9659b"/><stop offset=".616" stop-color="#b070bf"/><stop offset=".934" stop-color="#777ff0"/><stop offset="1" stop-color="#6a82fb"/></linearGradient><linearGradient id="New_Gradient_Swatch_2-2" x1="132.727" x2="132.727" xlink:href="#New_Gradient_Swatch_2" y1="85.585" y2="407.363"/><linearGradient id="New_Gradient_Swatch_2-3" x1="131.426" x2="131.426" xlink:href="#New_Gradient_Swatch_2" y1="85.585" y2="407.363"/><linearGradient id="New_Gradient_Swatch_2-4" x1="276" x2="276" xlink:href="#New_Gradient_Swatch_2" y1="85.585" y2="407.363"/><linearGradient id="New_Gradient_Swatch_2-5" x1="184" x2="184" xlink:href="#New_Gradient_Swatch_2" y1="85.585" y2="407.363"/><linearGradient id="New_Gradient_Swatch_2-6" x1="288" x2="288" xlink:href="#New_Gradient_Swatch_2" y1="85.585" y2="407.363"/><linearGradient id="New_Gradient_Swatch_2-7" x1="240" x2="240" xlink:href="#New_Gradient_Swatch_2" y1="85.585" y2="407.363"/><linearGradient id="New_Gradient_Swatch_2-8" x1="168" x2="168" xlink:href="#New_Gradient_Swatch_2" y1="85.585" y2="407.363"/><linearGradient id="New_Gradient_Swatch_2-9" x1="304" x2="304" xlink:href="#New_Gradient_Swatch_2" y1="85.585" y2="407.363"/><g id="GD001"><path d="m336.951 292.286 14.1 7.568a52.322 52.322 0 0 0 5.916-18.956l-15.9-1.8a36.386 36.386 0 0 1 -4.116 13.188z" fill="url(#New_Gradient_Swatch_2)"/><path d="m56 112a80.016 80.016 0 0 1 154.549-29.09l14.9-5.82a96.013 96.013 0 1 0 -106.9 129.327l2.89-15.736a79.936 79.936 0 0 1 -65.439-78.681z" fill="url(#New_Gradient_Swatch_2-2)"/><path d="m136 64a47.674 47.674 0 0 1 41.147 23.269l13.706-8.258a64.007 64.007 0 0 0 -118.853 32.989 64.385 64.385 0 0 0 45.718 61.349l4.564-15.335a48.009 48.009 0 0 1 13.718-94.014z" fill="url(#New_Gradient_Swatch_2-3)"/><path d="m432 80v-16h-32.8a39.986 39.986 0 0 0 -71.2-15.972 39.986 39.986 0 0 0 -71.195 15.972h-16.805v16h16.805a39.835 39.835 0 0 0 7.217 16h-136.022a8 8 0 0 0 -7.59 10.527c.155.473 15.59 47.398 15.59 93.473 0 23.678-3.915 34.4-8.061 45.754-3.903 10.689-7.939 21.746-7.939 42.246 0 13.536 8.2 34.147 31.2 51.4 23.871 17.9 54.249 25.088 80.8 27.524v55.662a21.931 21.931 0 0 1 -18.384 21.7l-70.931 11.822a8 8 0 0 0 -6.685 7.892v24a8 8 0 0 0 8 8h224a8 8 0 0 0 8-8v-24a8 8 0 0 0 -6.685-7.891l-70.931-11.822a21.931 21.931 0 0 1 -18.384-21.701v-55.662c26.551-2.436 56.929-9.621 80.8-27.524 23-17.253 31.2-37.864 31.2-51.4 0-20.5-4.036-31.557-7.939-42.246-4.146-11.354-8.061-22.076-8.061-45.754 0-46.011 15.391-92.872 15.59-93.47a8.007 8.007 0 0 0 -1.1-7.208 8.094 8.094 0 0 0 -.62-.756 39.911 39.911 0 0 0 9.33-18.566zm-72-32a24 24 0 1 1 -24 24 24.028 24.028 0 0 1 24-24zm-31.978 48h-.044l.022-.028zm-56.022-24a24 24 0 1 1 24 24 24.028 24.028 0 0 1 -24-24zm101.242 40c-4.422 15.768-11.992 47.1-13.1 80h-16a335.047 335.047 0 0 1 6.59-54.437l-15.692-3.126a350.414 350.414 0 0 0 -6.913 57.563h-20.427a31.793 31.793 0 0 0 4.3-16v-24a8 8 0 0 0 -8-8h-24a31.923 31.923 0 0 0 -24 10.868 31.923 31.923 0 0 0 -24-10.868h-24a8 8 0 0 0 -8 8v24a31.793 31.793 0 0 0 4.305 16h-52.447c-1.108-32.9-8.678-64.232-13.1-80zm-141.242 80a16.019 16.019 0 0 1 -16-16v-16h16a16.019 16.019 0 0 1 16 16v16zm32-16a16.019 16.019 0 0 1 16-16h16v16a16.019 16.019 0 0 1 -16 16h-16zm31.753 284.069 64.247 10.708v9.223h-208v-9.223l64.247-10.708a37.881 37.881 0 0 0 31.753-37.483v-54.705c2.745.08 5.42.119 8 .119s5.255-.039 8-.119v54.705a37.881 37.881 0 0 0 31.753 37.483zm55.447-133.469c-15.45 11.588-44.508 25.4-95.2 25.4s-79.75-13.812-95.2-25.4c-18.3-13.729-24.8-29.374-24.8-38.6 0-17.674 3.229-26.518 6.969-36.758 3.783-10.362 8.015-21.969 8.872-43.242h176.294c.911 27.015 6.371 41.984 10.837 54.214l.1.281c.419 1.149.782 2.322 1.081 3.488l15.5-3.966c-.428-1.676-.95-3.36-1.553-5.016l-.1-.275c-4.032-11.042-8.955-24.529-9.855-48.726h16.013c.857 21.273 5.089 32.88 8.872 43.242 3.741 10.24 6.97 19.084 6.97 36.758 0 9.226-6.495 24.871-24.8 38.6z" fill="url(#New_Gradient_Swatch_2-4)"/><path d="m176 232h16v16h-16z" fill="url(#New_Gradient_Swatch_2-5)"/><path d="m280 240h16v16h-16z" fill="url(#New_Gradient_Swatch_2-6)"/><path d="m232 272h16v16h-16z" fill="url(#New_Gradient_Swatch_2-7)"/><path d="m160 288h16v16h-16z" fill="url(#New_Gradient_Swatch_2-8)"/><path d="m296 312h16v16h-16z" fill="url(#New_Gradient_Swatch_2-9)"/></g></svg>