<svg height="512" viewBox="0 0 512 512" width="512" xmlns="http://www.w3.org/2000/svg" xmlns:xlink="http://www.w3.org/1999/xlink"><linearGradient id="New_Gradient_Swatch_2" gradientUnits="userSpaceOnUse" x1="320" x2="320" y1="80.428" y2="412.755"><stop offset="0" stop-color="#fc5c7d"/><stop offset=".129" stop-color="#f35e85"/><stop offset=".343" stop-color="#d9659b"/><stop offset=".616" stop-color="#b070bf"/><stop offset=".934" stop-color="#777ff0"/><stop offset="1" stop-color="#6a82fb"/></linearGradient><linearGradient id="New_Gradient_Swatch_2-3" x1="252" x2="252" xlink:href="#New_Gradient_Swatch_2" y1="80.428" y2="412.755"/><linearGradient id="New_Gradient_Swatch_2-4" x1="152" x2="152" xlink:href="#New_Gradient_Swatch_2" y1="80.428" y2="412.755"/><linearGradient id="New_Gradient_Swatch_2-5" x1="264" x2="264" xlink:href="#New_Gradient_Swatch_2" y1="80.428" y2="412.755"/><linearGradient id="New_Gradient_Swatch_2-6" x1="296" x2="296" xlink:href="#New_Gradient_Swatch_2" y1="80.428" y2="412.755"/><linearGradient id="New_Gradient_Swatch_2-7" x1="216" x2="216" xlink:href="#New_Gradient_Swatch_2" y1="80.428" y2="412.755"/><linearGradient id="New_Gradient_Swatch_2-8" x1="200" x2="200" xlink:href="#New_Gradient_Swatch_2" y1="80.428" y2="412.755"/><linearGradient id="New_Gradient_Swatch_2-9" x1="352" x2="352" xlink:href="#New_Gradient_Swatch_2" y1="80.428" y2="412.755"/><linearGradient id="New_Gradient_Swatch_2-10" x1="120" x2="120" xlink:href="#New_Gradient_Swatch_2" y1="80.428" y2="412.755"/><g id="GD001"><path d="m312 224h16v152h-16z" fill="url(#New_Gradient_Swatch_2)"/><path d="m312 392h16v16h-16z" fill="url(#New_Gradient_Swatch_2)"/><path d="m404 208h-36v-16.593a56.248 56.248 0 0 0 32.778-17.026 55.552 55.552 0 0 0 15.122-41.836 56 56 0 0 0 -65.4-51.733 56.277 56.277 0 0 0 -32.317-22.992 56.008 56.008 0 0 0 -109.7 6.822 55.576 55.576 0 0 0 -10.793-.593 56 56 0 0 0 -109.69 15.951q0 1.154.05 2.316a56.393 56.393 0 0 0 -40.05 53.784c.047 27.885 20.892 51.064 48 55.232v272.668a32.036 32.036 0 0 0 32 32h208a32.036 32.036 0 0 0 32-32v-32h36a52.059 52.059 0 0 0 52-52v-120a52.059 52.059 0 0 0 -52-52zm-52 219.056-25.889 12.944h-180.57l-33.541-13.416v-234.584h4a12.013 12.013 0 0 1 12 12v120a28 28 0 0 0 56 0v-80a12 12 0 0 1 24 0v40a28 28 0 0 0 56 0v-80a12.013 12.013 0 0 1 12-12h76zm16-171.056h24a16.019 16.019 0 0 1 16 16v96a16.019 16.019 0 0 1 -16 16h-24zm-304-119.93a40.213 40.213 0 0 1 33.968-39.617 8 8 0 0 0 6.679-9.327 40 40 0 1 1 78.9-13.158 8 8 0 0 0 9.327 6.679 39.782 39.782 0 0 1 20.526 1.661 8 8 0 0 0 10.669-7.988c-.046-.862-.069-1.62-.069-2.32a40 40 0 0 1 79.521-6.2 8 8 0 0 0 6.678 6.677 40.126 40.126 0 0 1 29.312 21.123 8 8 0 0 0 9.327 3.994 40 40 0 0 1 40.292 65.823 39.631 39.631 0 0 1 -29.13 12.583h-84a28.032 28.032 0 0 0 -28 28v80a12 12 0 0 1 -24 0v-40a28 28 0 0 0 -56 0v80a12 12 0 0 1 -24 0v-120a28.032 28.032 0 0 0 -28-28h-11.235c-22.441 0-40.728-17.913-40.765-39.93zm272 343.93h-208a16.019 16.019 0 0 1 -16-16v-20.184l29.029 11.612a8 8 0 0 0 2.971.572h184a7.994 7.994 0 0 0 3.578-.845l20.422-10.211v19.056a16.019 16.019 0 0 1 -16 16zm104-100a36.04 36.04 0 0 1 -36 36h-36v-16h24a32.036 32.036 0 0 0 32-32v-96a32.036 32.036 0 0 0 -32-32h-24v-16h36a36.04 36.04 0 0 1 36 36z" fill="url(#New_Gradient_Swatch_2-3)"/><path d="m144 88h16v16h-16z" fill="url(#New_Gradient_Swatch_2-4)"/><path d="m256 72h16v16h-16z" fill="url(#New_Gradient_Swatch_2-5)"/><path d="m288 144h16v16h-16z" fill="url(#New_Gradient_Swatch_2-6)"/><path d="m208 120h16v16h-16z" fill="url(#New_Gradient_Swatch_2-7)"/><path d="m192 176h16v16h-16z" fill="url(#New_Gradient_Swatch_2-8)"/><path d="m344 120h16v16h-16z" fill="url(#New_Gradient_Swatch_2-9)"/><path d="m112 136h16v16h-16z" fill="url(#New_Gradient_Swatch_2-10)"/></g></svg>