<svg height="512" viewBox="0 0 512 512" width="512" xmlns="http://www.w3.org/2000/svg" xmlns:xlink="http://www.w3.org/1999/xlink"><linearGradient id="New_Gradient_Swatch_2" gradientUnits="userSpaceOnUse" x1="152" x2="152" y1="57.56" y2="383.436"><stop offset="0" stop-color="#fc5c7d"/><stop offset=".129" stop-color="#f35e85"/><stop offset=".343" stop-color="#d9659b"/><stop offset=".616" stop-color="#b070bf"/><stop offset=".934" stop-color="#777ff0"/><stop offset="1" stop-color="#6a82fb"/></linearGradient><linearGradient id="New_Gradient_Swatch_2-2" x1="120" x2="120" xlink:href="#New_Gradient_Swatch_2" y1="57.56" y2="383.436"/><linearGradient id="New_Gradient_Swatch_2-3" x1="180" x2="180" xlink:href="#New_Gradient_Swatch_2" y1="57.56" y2="383.436"/><linearGradient id="New_Gradient_Swatch_2-4" x1="156" x2="156" xlink:href="#New_Gradient_Swatch_2" y1="57.56" y2="383.436"/><linearGradient id="New_Gradient_Swatch_2-5" x1="148" x2="148" xlink:href="#New_Gradient_Swatch_2" y1="57.56" y2="383.436"/><linearGradient id="New_Gradient_Swatch_2-6" x1="328" x2="328" xlink:href="#New_Gradient_Swatch_2" y1="57.56" y2="383.436"/><linearGradient id="New_Gradient_Swatch_2-7" x1="388" x2="388" xlink:href="#New_Gradient_Swatch_2" y1="57.56" y2="383.436"/><linearGradient id="New_Gradient_Swatch_2-8" x1="364" x2="364" xlink:href="#New_Gradient_Swatch_2" y1="57.56" y2="383.436"/><linearGradient id="New_Gradient_Swatch_2-9" x1="356" x2="356" xlink:href="#New_Gradient_Swatch_2" y1="57.56" y2="383.436"/><linearGradient id="New_Gradient_Swatch_2-10" x1="360" x2="360" xlink:href="#New_Gradient_Swatch_2" y1="57.56" y2="383.436"/><linearGradient id="New_Gradient_Swatch_2-11" x1="136" x2="136" xlink:href="#New_Gradient_Swatch_2" y1="57.56" y2="383.436"/><linearGradient id="New_Gradient_Swatch_2-12" x1="168" x2="168" xlink:href="#New_Gradient_Swatch_2" y1="57.56" y2="383.436"/><linearGradient id="New_Gradient_Swatch_2-13" x1="256" x2="256" xlink:href="#New_Gradient_Swatch_2" y1="57.56" y2="383.436"/><g id="GD001"><path d="m144 215.419v56.581h-24v16h64v-16h-24v-56.581a56.078 56.078 0 0 0 48-55.419v-80a8 8 0 0 0 -8-8h-96a8 8 0 0 0 -8 8v80a56.078 56.078 0 0 0 48 55.419zm-32-127.419h80v24h-80zm0 40h80v32a40 40 0 0 1 -80 0z" fill="url(#New_Gradient_Swatch_2)"/><path d="m112 320h16v16h-16z" fill="url(#New_Gradient_Swatch_2-2)"/><path d="m144 320h72v16h-72z" fill="url(#New_Gradient_Swatch_2-3)"/><path d="m96 352h120v16h-120z" fill="url(#New_Gradient_Swatch_2-4)"/><path d="m96 384h104v16h-104z" fill="url(#New_Gradient_Swatch_2-5)"/><path d="m320 320h16v16h-16z" fill="url(#New_Gradient_Swatch_2-6)"/><path d="m352 320h72v16h-72z" fill="url(#New_Gradient_Swatch_2-7)"/><path d="m304 352h120v16h-120z" fill="url(#New_Gradient_Swatch_2-8)"/><path d="m304 384h104v16h-104z" fill="url(#New_Gradient_Swatch_2-9)"/><path d="m304.016 280.5a8 8 0 0 0 7.984 7.5h96a8 8 0 0 0 7.984-7.5l8-128a8 8 0 0 0 -7.984-8.5h-21.523l5.4-30.609-15.756-2.782-5.892 33.391h-74.229a8 8 0 0 0 -7.984 8.5zm87.637-120.5h15.831l-2.5 40h-20.39zm-9.882 56h22.213l-3.5 56h-80.968l-3.5-56h49.507l-5.4 30.609 15.756 2.782zm-6.365-56-7.059 40h-53.331l-2.5-40z" fill="url(#New_Gradient_Swatch_2-10)"/><path d="m128 144h16v16h-16z" fill="url(#New_Gradient_Swatch_2-11)"/><path d="m160 160h16v16h-16z" fill="url(#New_Gradient_Swatch_2-12)"/><path d="m464 16h-176a8 8 0 0 0 -5.657 2.343l-26.343 26.344-26.343-26.344a8 8 0 0 0 -5.657-2.343h-176a8 8 0 0 0 -8 8v440a8 8 0 0 0 8 8h416a8 8 0 0 0 8-8v-440a8 8 0 0 0 -8-8zm-408 440v-16h164.687l16 16zm192-11.314-18.343-18.343a8 8 0 0 0 -5.657-2.343h-168v-392h164.687l27.313 27.314zm208 11.314h-179.942c4.06-4.162 9.078-9.389 15.373-16h164.569zm0-32h-168a8 8 0 0 0 -5.8 2.487c-6.135 6.452-12.707 13.261-18.2 18.853v-386.026l27.313-27.314h164.687z" fill="url(#New_Gradient_Swatch_2-13)"/></g></svg>