<svg height="512" viewBox="0 0 512 512" width="512" xmlns="http://www.w3.org/2000/svg" xmlns:xlink="http://www.w3.org/1999/xlink"><linearGradient id="New_Gradient_Swatch_2" gradientUnits="userSpaceOnUse" x1="168" x2="168" y1="87.042" y2="462.081"><stop offset="0" stop-color="#fc5c7d"/><stop offset=".129" stop-color="#f35e85"/><stop offset=".343" stop-color="#d9659b"/><stop offset=".616" stop-color="#b070bf"/><stop offset=".934" stop-color="#777ff0"/><stop offset="1" stop-color="#6a82fb"/></linearGradient><linearGradient id="New_Gradient_Swatch_2-2" x1="312" x2="312" xlink:href="#New_Gradient_Swatch_2" y1="87.042" y2="462.081"/><linearGradient id="New_Gradient_Swatch_2-3" x1="338.036" x2="338.036" xlink:href="#New_Gradient_Swatch_2" y1="87.042" y2="462.081"/><linearGradient id="New_Gradient_Swatch_2-4" x1="330.714" x2="330.714" xlink:href="#New_Gradient_Swatch_2" y1="87.042" y2="462.081"/><linearGradient id="New_Gradient_Swatch_2-5" x1="296" x2="296" xlink:href="#New_Gradient_Swatch_2" y1="87.042" y2="462.081"/><linearGradient id="New_Gradient_Swatch_2-6" x1="328" x2="328" xlink:href="#New_Gradient_Swatch_2" y1="87.042" y2="462.081"/><g id="GD001"><path d="m272 248h-208a8 8 0 0 0 -7.981 8.551l14.459 209.649a32.1 32.1 0 0 0 31.922 29.8h131.2a32.1 32.1 0 0 0 31.923-29.8l14.459-209.651a8 8 0 0 0 -7.982-8.549zm-189.5 160h22.016a63.914 63.914 0 0 0 21.217 40h-11.17l-30.82-22.015zm132.819 0a47.991 47.991 0 0 1 -94.642 0zm-94.642-16a47.991 47.991 0 0 1 94.642 0zm128.883 73.1a16.047 16.047 0 0 1 -15.96 14.9h-131.2a16.047 16.047 0 0 1 -15.96-14.9l-1.271-18.435 22.182 15.844a8 8 0 0 0 4.649 1.491h112a8 8 0 0 0 4.649-1.49l22.182-15.844zm2.7-39.117-30.823 22.017h-11.172a63.914 63.914 0 0 0 21.217-40h22.018zm2.34-33.983h-23.118a63.982 63.982 0 0 0 -126.964 0h-23.118l-8.83-128h190.86z" fill="url(#New_Gradient_Swatch_2)"/><path d="m416.884 168.049-29.305-3.256a32.11 32.11 0 0 1 -28.4-34.445c.545-6.151.821-12.324.821-18.348a213.334 213.334 0 0 0 -5.627-48.358 8 8 0 0 0 5.627-7.642v-32a8 8 0 0 0 -8-8h-80a8 8 0 0 0 -8 8v32a8 8 0 0 0 5.627 7.642 213.334 213.334 0 0 0 -5.627 48.358c0 6.024.276 12.2.821 18.348a32.11 32.11 0 0 1 -28.4 34.445l-29.3 3.256a8 8 0 0 0 -7.121 7.951v56h16v-16h192v200h-128v16h128v32a16.019 16.019 0 0 1 -16 16h-112v16h112a32.036 32.036 0 0 0 32-32v-288a8 8 0 0 0 -7.116-7.951zm-136.884-136.049h64v16h-64zm63.826 72h-63.651a197.571 197.571 0 0 1 5.865-40h51.928a196.245 196.245 0 0 1 5.858 40zm64.174 96h-192v-16.84l22.188-2.465c25.749-2.862 44.846-26.081 42.571-51.759-.265-2.983-.456-5.968-.583-8.936h63.648c-.127 2.968-.318 5.953-.583 8.936-2.275 25.678 16.822 48.9 42.571 51.759l22.188 2.465z" fill="url(#New_Gradient_Swatch_2-2)"/><path d="m370.784 292.18 10.432-12.131c-18.034-15.508-42.616-24.049-69.216-24.049a120.214 120.214 0 0 0 -17.145 1.22l2.29 15.836a104.1 104.1 0 0 1 14.855-1.056c22.773 0 43.65 7.167 58.784 20.18z" fill="url(#New_Gradient_Swatch_2-3)"/><path d="m312 384c16.611 0 32.325-4.689 44.248-13.206 12.737-9.094 19.752-21.454 19.752-34.794s-7.015-25.7-19.752-34.794c-11.923-8.517-27.637-13.206-44.248-13.206a85.146 85.146 0 0 0 -17.663 1.831l3.326 15.65a69.113 69.113 0 0 1 14.337-1.481c26.019 0 48 14.654 48 32s-21.981 32-48 32a66.533 66.533 0 0 1 -21.429-3.425l-5.142 15.151a82.5 82.5 0 0 0 26.571 4.274z" fill="url(#New_Gradient_Swatch_2-4)"/><path d="m288 328h16v16h-16z" fill="url(#New_Gradient_Swatch_2-5)"/><path d="m320 328h16v16h-16z" fill="url(#New_Gradient_Swatch_2-6)"/></g></svg>